<?xml version="1.0" encoding="utf-8"?>
<!-- Generator: Adobe Illustrator 23.0.1, SVG Export Plug-In . SVG Version: 6.00 Build 0)  -->
<svg version="1.1" id="Layer_1" xmlns="http://www.w3.org/2000/svg" xmlns:xlink="http://www.w3.org/1999/xlink" x="0px" y="0px"
	 viewBox="0 0 495 194" style="enable-background:new 0 0 495 194;" xml:space="preserve">
<style type="text/css">
	.st0{fill:#FFFFFF;}
	.st1{font-family:'Poppins-SemiBold';}
	.st2{font-size:18.0686px;}
	.st3{fill:#00E1B4;}
</style>
<title>Group</title>
<desc>Created with Sketch.</desc>
<g>
	<g>
		<g>
			<text transform="matrix(1 0 0 1 324.4137 88.521)" class="st0 st1 st2">Buy now.</text>
			<text transform="matrix(1 0 0 1 324.4137 110.221)" class="st0 st1 st2">Pay smarter.</text>
			<g>
				<g>
					<path class="st0" d="M109.6,74.7c-3.4,0-6.6,1.3-8.6,3.4c0-0.3,0-0.7,0.1-1.1c0-0.4-0.1-0.9-0.4-1.2c-0.3-0.4-0.7-0.5-1.2-0.5
						h-5.9c-0.4,0-0.7,0.3-0.8,0.6l-9.1,42.7c-0.1,0.3,0.1,0.7,0.4,0.9c0.1,0.1,0.3,0.1,0.4,0.1h3.3c2.7,0,5.1-1.9,5.6-4.6l2.3-11.1
						c1.5,2.1,4.8,4.2,9.6,4.2c9.7,0,16.7-8.5,16.7-20.1C122,79.8,117.2,74.7,109.6,74.7z M112.9,89.5c0,6.9-4.4,10.7-8.5,10.7
						c-3.9,0-6.3-2.7-6.3-7.1c0-5.9,3.7-10.5,8.4-10.5C110.6,82.6,112.9,85.2,112.9,89.5z"/>
					<path class="st0" d="M154.3,93.3c0.5-1.8,0.8-3.8,0.8-5.4c0-8.2-5.5-13.6-14.1-13.6c-8.5,0-17.2,7.2-17.2,19.2
						c0,8.6,6.2,14.9,14.8,14.9c8.9,0,12.8-5.3,14.1-7.6c0.1-0.2,0.1-0.4,0.1-0.6c-0.1-0.2-0.2-0.4-0.4-0.5l-5.5-2.8
						c-0.4-0.2-0.8-0.1-1.1,0.3c-0.7,1.1-2.7,3.5-6.6,3.5c-4.1,0-6.7-2.7-6.9-6.9l21.3-0.1C153.9,93.9,154.2,93.6,154.3,93.3z
						 M140.8,81.8c4.6,0,5.8,3.3,5.8,5.2c0,0.1,0,0.2,0,0.5h-13.4C134.3,84,137.2,81.8,140.8,81.8z"/>
					<path class="st0" d="M177.2,74.5c-3.5,0-6.6,1.2-8.5,3.5c0-0.3,0-0.6,0.1-0.9c0-0.4-0.1-0.9-0.4-1.2c-0.3-0.4-0.7-0.5-1.2-0.5
						h-5.9c-0.4,0-0.7,0.3-0.8,0.6l-6.4,30.5c-0.1,0.3,0.1,0.7,0.4,0.9c0.1,0.1,0.3,0.1,0.4,0.1h7.3c0.4,0,0.7-0.3,0.8-0.6l3.9-17.9
						c0.9-4,3.3-6.4,6.5-6.4c2.9,0,4.6,1.6,4.6,4.5c0,0.6-0.1,1.2-0.2,1.8l-3.2,15c-0.2,0.9,0.1,1.9,0.7,2.7
						c0.6,0.6,1.4,0.9,2.3,0.9h4.7c0.3,0,0.6-0.2,0.7-0.5l4.1-18.8c0.3-1.2,0.4-2.3,0.4-3.4C187.2,78.5,183.3,74.5,177.2,74.5z"/>
					<path class="st0" d="M209.4,74.7c-3.4,0-6.6,1.3-8.6,3.4c0-0.4,0-0.7,0.1-1.1c0-0.4-0.2-0.9-0.4-1.2c-0.3-0.3-0.7-0.5-1.2-0.5
						h-5.9c-0.4,0-0.7,0.3-0.8,0.6l-9.1,42.7c0,0.2,0,0.5,0.2,0.7s0.4,0.3,0.6,0.3h3.3c2.7,0,5.1-1.9,5.6-4.6l2.3-11.1
						c1.5,2.1,4.8,4.2,9.6,4.2c9.7,0,16.7-8.5,16.7-20.1C221.9,79.8,217.1,74.7,209.4,74.7z M212.8,89.5c0,6.9-4.4,10.7-8.5,10.7
						c-3.9,0-6.3-2.7-6.3-7.1c0-5.9,3.7-10.5,8.4-10.5C210.5,82.6,212.8,85.2,212.8,89.5z"/>
					<path class="st0" d="M252.4,107.1c0.1-0.1,0.1-0.3,0.1-0.5s0-0.4,0-0.6c0-1.9,0.2-3.9,0.6-5.7l5.1-24c0-0.2,0-0.3,0-0.5
						c-0.1-0.3-0.4-0.5-0.7-0.5H251c-0.7,0-1.4,0.5-1.6,1.3l-0.4,1.9c-0.9-1.4-3.4-4-9.1-4c-9.4,0-16.4,8.2-16.4,19.1
						c0,8.4,5.2,14.3,12.6,14.3c4.3,0,6.9-2.2,8.2-3.9c0,0.5-0.1,1.1-0.1,1.6v0.1c0,0.9,0.7,1.6,1.6,1.6h6
						C251.9,107.5,252.2,107.3,252.4,107.1z M246.3,89.2c0,6.4-3.4,11-8,11c-3.7,0-6-2.5-6-6.8c0-6.9,4.2-10.7,8.2-10.7
						C244.1,82.7,246.3,85.1,246.3,89.2z"/>
					<path class="st0" d="M290.9,75.5c-0.2-0.1-0.3-0.2-0.5-0.2h-7.7c-0.3,0-0.6,0.2-0.7,0.4L271.1,96l-2.6-20
						c0-0.4-0.4-0.7-0.8-0.7h-7.6c-0.1,0-0.2,0-0.3,0.1c-0.4,0.2-0.5,0.5-0.5,0.9l5.3,30c0,0.2,0,0.4-0.1,0.5l-1.2,1.9
						c-1.3,2.3-3,3.4-5,3.5c-0.7,0-1.4-0.1-1.9-0.4c-0.4-0.2-0.8,0-1,0.3l-3.6,5.8c-0.1,0.2-0.2,0.3-0.1,0.5c0,0.2,0.2,0.4,0.4,0.5
						c1,0.5,3.1,1.2,5.5,1.2c5.6,0,10.9-3.4,14.5-9.3l19.1-34.3C291.3,76.2,291.3,75.8,290.9,75.5z"/>
					<path class="st0" d="M78.1,89.7c0,5.1-2.9,10.5-8.3,10.5c-3.8,0-6.3-2.8-6.3-7.1c0-6,3.6-10.5,8.3-10.5c0.5,0,0.9,0,1.4,0.1
						c0.4,0.1,0.8-0.2,0.9-0.6c0.4-1.6,1.1-5.1,1.4-6.7c0.1-0.4-0.2-0.9-0.6-0.9c-0.8-0.1-1.6-0.2-2.4-0.2c-10.3,0-18,8.2-18,19.1
						c0,8.7,6.2,15,14.7,15c10.1,0,17.9-8.4,17.9-19.1c0-1.2-0.1-2.3-0.3-3.4c-0.1-0.5-0.5-0.7-1-0.6l-7.2,2.3
						c-0.4,0.1-0.6,0.5-0.5,0.8C78.1,88.9,78.1,89.3,78.1,89.7z"/>
				</g>
				<path class="st3" d="M83.9,77c-1.4-1.4-3.2-2.3-5.4-2.7c-0.5-0.1-0.9,0.2-1,0.7c-0.5,2.3-1.9,9-2.4,11.3
					c-0.1,0.3,0.2,0.6,0.6,0.5l10.6-3.5c0.4-0.2,0.7-0.6,0.6-1C86.4,80.2,85.3,78.4,83.9,77z"/>
			</g>
		</g>
	</g>
</g>
</svg>
