<?xml version="1.0" encoding="utf-8"?>
<!-- Generator: Adobe Illustrator 22.0.1, SVG Export Plug-In . SVG Version: 6.00 Build 0)  -->
<svg version="1.1" id="Layer_1" xmlns="http://www.w3.org/2000/svg" xmlns:xlink="http://www.w3.org/1999/xlink" x="0px" y="0px"
	 viewBox="0 0 495 194" style="enable-background:new 0 0 495 194;" xml:space="preserve">
<style type="text/css">
	.st0{enable-background:new    ;}
	.st1{fill:#FFFFFF;}
	.st2{fill:#00E1B4;}
</style>
<title>Group</title>
<desc>Created with Sketch.</desc>
<g>
	<g>
		<g>
			<g class="st0">
				<path class="st1" d="M325.8,75.9h5.1c1.3,0,2.3,0.3,3,0.9c0.7,0.6,1.1,1.4,1.1,2.4c0,1.4-0.8,2.4-2.5,2.8c0.8,0.1,1.5,0.5,2,1.1
					c0.5,0.6,0.8,1.3,0.8,2.1c0,1-0.4,1.8-1.1,2.4s-1.8,0.9-3,0.9h-5.4V75.9z M328.3,77.9v3.3h2.3c0.6,0,1-0.1,1.3-0.4
					c0.3-0.3,0.5-0.7,0.5-1.2c0-0.5-0.2-0.9-0.5-1.2c-0.3-0.3-0.8-0.4-1.3-0.4H328.3z M328.3,86.6h2.6c0.6,0,1-0.2,1.4-0.5
					c0.3-0.3,0.5-0.7,0.5-1.3c0-0.5-0.2-1-0.5-1.3s-0.8-0.5-1.4-0.5h-2.5V86.6z"/>
				<path class="st1" d="M344.4,78.5h2.5v10h-2.5V87c-0.6,1.1-1.7,1.6-3.1,1.6c-1.1,0-2.1-0.4-2.8-1.1c-0.7-0.8-1.1-1.8-1.1-3.1
					v-5.9h2.5V84c0,0.8,0.2,1.4,0.6,1.8c0.4,0.4,0.9,0.6,1.6,0.6c0.7,0,1.2-0.2,1.6-0.6c0.4-0.4,0.6-1,0.6-1.8V78.5z"/>
				<path class="st1" d="M352.4,88.3l-3.9-9.8h2.9l2.5,7.1l2.7-7.1h2.7l-6.3,14.7h-2.7L352.4,88.3z"/>
				<path class="st1" d="M368.6,78.5V80c0.6-1.1,1.7-1.6,3.1-1.6c1.1,0,2.1,0.4,2.8,1.1s1.1,1.8,1.1,3.1v5.9h-2.5V83
					c0-0.8-0.2-1.4-0.6-1.8c-0.4-0.4-0.9-0.6-1.6-0.6s-1.2,0.2-1.6,0.6c-0.4,0.4-0.6,1-0.6,1.8v5.5h-2.5v-10H368.6z"/>
				<path class="st1" d="M379,87.2c-1-1-1.5-2.2-1.5-3.7c0-1.5,0.5-2.8,1.5-3.7c1-0.9,2.2-1.4,3.7-1.4c1.5,0,2.7,0.5,3.7,1.4
					c1,0.9,1.5,2.2,1.5,3.7c0,1.5-0.5,2.8-1.5,3.7c-1,1-2.2,1.4-3.7,1.4S380,88.2,379,87.2z M382.7,86.5c0.7,0,1.3-0.3,1.8-0.8
					c0.5-0.5,0.8-1.3,0.8-2.2c0-1-0.3-1.7-0.8-2.2c-0.5-0.5-1.1-0.8-1.8-0.8s-1.3,0.3-1.8,0.8c-0.5,0.5-0.7,1.3-0.7,2.2
					s0.2,1.7,0.7,2.2C381.4,86.3,382,86.5,382.7,86.5z"/>
				<path class="st1" d="M401.3,78.5h2.4l-3.1,10h-2.7l-1.7-6.7l-1.7,6.7h-2.7l-3.1-10h2.6l1.8,7.6l1.8-7.6h2.7l1.8,7.6L401.3,78.5z
					"/>
				<path class="st1" d="M407.5,87.1c0,0.4-0.1,0.8-0.4,1c-0.3,0.3-0.6,0.4-1,0.4c-0.4,0-0.7-0.1-1-0.4c-0.3-0.3-0.4-0.6-0.4-1
					s0.1-0.8,0.4-1c0.3-0.3,0.6-0.4,1-0.4c0.4,0,0.7,0.1,1,0.4C407.3,86.3,407.5,86.7,407.5,87.1z"/>
			</g>
			<g class="st0">
				<path class="st1" d="M334,103.9c-0.3,0.4-0.8,0.7-1.4,0.9c-0.6,0.2-1.3,0.4-2.2,0.4h-2.1v5h-2.5V97.6h4.6c1.5,0,2.6,0.4,3.4,1.1
					c0.8,0.7,1.2,1.6,1.2,2.6C335,102.3,334.6,103.1,334,103.9z M328.3,103.2h2.1c0.6,0,1.1-0.2,1.5-0.5c0.3-0.3,0.5-0.8,0.5-1.3
					s-0.2-1-0.5-1.3c-0.3-0.3-0.8-0.5-1.5-0.5h-2.1V103.2z"/>
				<path class="st1" d="M337.5,108.9c-0.9-1-1.3-2.2-1.3-3.7c0-1.5,0.4-2.7,1.3-3.7c0.9-1,2-1.4,3.4-1.4s2.4,0.6,3.1,1.7v-1.6h2.5
					v10h-2.5v-1.7c-0.8,1.2-1.8,1.8-3.2,1.8C339.5,110.4,338.4,109.9,337.5,108.9z M343.3,107.4c0.5-0.5,0.8-1.2,0.8-2.2
					s-0.3-1.6-0.8-2.2c-0.5-0.5-1.2-0.8-1.9-0.8c-0.7,0-1.3,0.3-1.9,0.8c-0.5,0.5-0.8,1.2-0.8,2.1c0,0.9,0.3,1.6,0.8,2.2
					s1.1,0.8,1.9,0.8C342.1,108.2,342.7,107.9,343.3,107.4z"/>
				<path class="st1" d="M352,110l-3.9-9.8h2.9l2.5,7.1l2.7-7.1h2.7l-6.3,14.7h-2.7L352,110z"/>
				<path class="st1" d="M365.2,103.1c0-0.9,0.4-1.6,1.1-2.2c0.7-0.6,1.7-0.9,2.9-0.9s2.2,0.3,2.9,0.9c0.7,0.6,1.1,1.4,1.2,2.4h-2.6
					c-0.1-0.8-0.6-1.3-1.6-1.3c-0.5,0-0.9,0.1-1.1,0.3s-0.4,0.5-0.4,0.8c0,0.3,0.2,0.6,0.6,0.8c0.4,0.2,0.9,0.3,1.4,0.5
					s1.1,0.2,1.7,0.4c0.6,0.2,1,0.5,1.4,0.9c0.4,0.4,0.6,1,0.6,1.7c0,0.9-0.4,1.6-1.1,2.2c-0.8,0.6-1.7,0.8-2.9,0.8
					s-2.2-0.3-2.9-0.8c-0.8-0.6-1.2-1.4-1.2-2.4h2.6c0.1,0.8,0.6,1.3,1.6,1.3c0.5,0,0.8-0.1,1.1-0.3s0.4-0.5,0.4-0.8
					c0-0.3-0.2-0.6-0.6-0.8c-0.4-0.2-0.9-0.4-1.4-0.5s-1.1-0.2-1.7-0.4c-0.6-0.2-1-0.4-1.4-0.8S365.2,103.8,365.2,103.1z"/>
				<path class="st1" d="M378.1,100.2v1.5c0.6-1.1,1.7-1.6,3.1-1.6c0.8,0,1.4,0.2,2,0.5c0.6,0.3,1.1,0.8,1.4,1.5
					c0.3-0.6,0.8-1.1,1.4-1.5s1.3-0.5,2.1-0.5c1.2,0,2.2,0.4,2.9,1.1c0.7,0.7,1.1,1.8,1.1,3.1v5.9h-2.5v-5.5c0-0.8-0.2-1.4-0.6-1.8
					c-0.4-0.4-0.9-0.6-1.6-0.6s-1.2,0.2-1.6,0.6c-0.4,0.4-0.6,1-0.6,1.8v5.5h-2.5v-5.5c0-0.8-0.2-1.4-0.6-1.8
					c-0.4-0.4-0.9-0.6-1.6-0.6c-0.7,0-1.2,0.2-1.6,0.6c-0.4,0.4-0.6,1-0.6,1.8v5.5h-2.5v-10H378.1z"/>
				<path class="st1" d="M395.3,108.9c-0.9-1-1.3-2.2-1.3-3.7c0-1.5,0.4-2.7,1.3-3.7c0.9-1,2-1.4,3.4-1.4c1.4,0,2.4,0.6,3.1,1.7
					v-1.6h2.5v10h-2.5v-1.7c-0.8,1.2-1.8,1.8-3.2,1.8C397.4,110.4,396.2,109.9,395.3,108.9z M401.1,107.4c0.5-0.5,0.8-1.2,0.8-2.2
					s-0.3-1.6-0.8-2.2c-0.5-0.5-1.2-0.8-1.9-0.8s-1.3,0.3-1.9,0.8c-0.5,0.5-0.8,1.2-0.8,2.1c0,0.9,0.3,1.6,0.8,2.2
					c0.5,0.5,1.1,0.8,1.9,0.8C399.9,108.2,400.5,107.9,401.1,107.4z"/>
				<path class="st1" d="M409.7,100.2v1.8c0.7-1.3,1.7-1.9,2.9-1.9v2.6H412c-0.8,0-1.3,0.2-1.7,0.6c-0.4,0.4-0.6,1-0.6,2v5h-2.5v-10
					H409.7z"/>
				<path class="st1" d="M418.3,108.1h1.2v2.1h-1.6c-1,0-1.8-0.2-2.4-0.7s-0.8-1.2-0.8-2.3v-4.9h-1.1v-2.1h1.1v-2.5h2.5v2.5h2.2v2.1
					h-2.2v4.9c0,0.3,0.1,0.6,0.2,0.7S417.9,108.1,418.3,108.1z"/>
				<path class="st1" d="M425.7,110.4c-1.5,0-2.6-0.5-3.6-1.4c-0.9-0.9-1.4-2.2-1.4-3.8c0-1.6,0.5-2.8,1.4-3.7
					c0.9-0.9,2.1-1.4,3.6-1.4c1.5,0,2.7,0.5,3.6,1.4c0.9,0.9,1.4,2.1,1.4,3.6c0,0.3,0,0.7-0.1,1h-7.3c0.1,0.7,0.3,1.2,0.7,1.6
					c0.4,0.4,1,0.6,1.6,0.6c0.9,0,1.5-0.4,2-1.1h2.7c-0.3,1-0.8,1.7-1.7,2.3S426.9,110.4,425.7,110.4z M427.4,102.8
					c-0.5-0.4-1-0.6-1.6-0.6c-0.6,0-1.2,0.2-1.6,0.6s-0.7,0.9-0.8,1.6h4.7C428.1,103.7,427.8,103.2,427.4,102.8z"/>
				<path class="st1" d="M435.3,100.2v1.8c0.7-1.3,1.7-1.9,2.9-1.9v2.6h-0.6c-0.8,0-1.3,0.2-1.7,0.6c-0.4,0.4-0.6,1-0.6,2v5h-2.5
					v-10H435.3z"/>
				<path class="st1" d="M442.3,108.8c0,0.4-0.1,0.8-0.4,1c-0.3,0.3-0.6,0.4-1,0.4s-0.7-0.1-1-0.4c-0.3-0.3-0.4-0.6-0.4-1
					s0.1-0.8,0.4-1c0.3-0.3,0.6-0.4,1-0.4s0.7,0.1,1,0.4C442.2,108,442.3,108.4,442.3,108.8z"/>
			</g>
			<g>
				<g>
					<path class="st1" d="M109.6,74.7c-3.4,0-6.6,1.3-8.6,3.4c0-0.3,0-0.7,0.1-1.1c0-0.4-0.1-0.9-0.4-1.2c-0.3-0.4-0.7-0.5-1.2-0.5
						h-5.9c-0.4,0-0.7,0.3-0.8,0.6l-9.1,42.7c-0.1,0.3,0.1,0.7,0.4,0.9c0.1,0.1,0.3,0.1,0.4,0.1h3.3c2.7,0,5.1-1.9,5.6-4.6l2.3-11.1
						c1.5,2.1,4.8,4.2,9.6,4.2c9.7,0,16.7-8.5,16.7-20.1C122,79.8,117.2,74.7,109.6,74.7z M112.9,89.5c0,6.9-4.4,10.7-8.5,10.7
						c-3.9,0-6.3-2.7-6.3-7.1c0-5.9,3.7-10.5,8.4-10.5C110.6,82.6,112.9,85.2,112.9,89.5z"/>
					<path class="st1" d="M154.3,93.3c0.5-1.8,0.8-3.8,0.8-5.4c0-8.2-5.5-13.6-14.1-13.6c-8.5,0-17.2,7.2-17.2,19.2
						c0,8.6,6.2,14.9,14.8,14.9c8.9,0,12.8-5.3,14.1-7.6c0.1-0.2,0.1-0.4,0.1-0.6c-0.1-0.2-0.2-0.4-0.4-0.5l-5.5-2.8
						c-0.4-0.2-0.8-0.1-1.1,0.3c-0.7,1.1-2.7,3.5-6.6,3.5c-4.1,0-6.7-2.7-6.9-6.9l21.3-0.1C153.9,93.9,154.2,93.6,154.3,93.3z
						 M140.8,81.8c4.6,0,5.8,3.3,5.8,5.2c0,0.1,0,0.2,0,0.5h-13.4C134.3,84,137.2,81.8,140.8,81.8z"/>
					<path class="st1" d="M177.2,74.5c-3.5,0-6.6,1.2-8.5,3.5c0-0.3,0-0.6,0.1-0.9c0-0.4-0.1-0.9-0.4-1.2c-0.3-0.4-0.7-0.5-1.2-0.5
						h-5.9c-0.4,0-0.7,0.3-0.8,0.6l-6.4,30.5c-0.1,0.3,0.1,0.7,0.4,0.9c0.1,0.1,0.3,0.1,0.4,0.1h7.3c0.4,0,0.7-0.3,0.8-0.6l3.9-17.9
						c0.9-4,3.3-6.4,6.5-6.4c2.9,0,4.6,1.6,4.6,4.5c0,0.6-0.1,1.2-0.2,1.8l-3.2,15c-0.2,0.9,0.1,1.9,0.7,2.7
						c0.6,0.6,1.4,0.9,2.3,0.9h4.7c0.3,0,0.6-0.2,0.7-0.5l4.1-18.8c0.3-1.2,0.4-2.3,0.4-3.4C187.2,78.5,183.3,74.5,177.2,74.5z"/>
					<path class="st1" d="M209.4,74.7c-3.4,0-6.6,1.3-8.6,3.4c0-0.4,0-0.7,0.1-1.1c0-0.4-0.2-0.9-0.4-1.2c-0.3-0.3-0.7-0.5-1.2-0.5
						h-5.9c-0.4,0-0.7,0.3-0.8,0.6l-9.1,42.7c0,0.2,0,0.5,0.2,0.7s0.4,0.3,0.6,0.3h3.3c2.7,0,5.1-1.9,5.6-4.6l2.3-11.1
						c1.5,2.1,4.8,4.2,9.6,4.2c9.7,0,16.7-8.5,16.7-20.1C221.9,79.8,217.1,74.7,209.4,74.7z M212.8,89.5c0,6.9-4.4,10.7-8.5,10.7
						c-3.9,0-6.3-2.7-6.3-7.1c0-5.9,3.7-10.5,8.4-10.5C210.5,82.6,212.8,85.2,212.8,89.5z"/>
					<path class="st1" d="M252.4,107.1c0.1-0.1,0.1-0.3,0.1-0.5s0-0.4,0-0.6c0-1.9,0.2-3.9,0.6-5.7l5.1-24c0-0.2,0-0.3,0-0.5
						c-0.1-0.3-0.4-0.5-0.7-0.5H251c-0.7,0-1.4,0.5-1.6,1.3l-0.4,1.9c-0.9-1.4-3.4-4-9.1-4c-9.4,0-16.4,8.2-16.4,19.1
						c0,8.4,5.2,14.3,12.6,14.3c4.3,0,6.9-2.2,8.2-3.9c0,0.5-0.1,1.1-0.1,1.6v0.1c0,0.9,0.7,1.6,1.6,1.6h6
						C251.9,107.5,252.2,107.3,252.4,107.1z M246.3,89.2c0,6.4-3.4,11-8,11c-3.7,0-6-2.5-6-6.8c0-6.9,4.2-10.7,8.2-10.7
						C244.1,82.7,246.3,85.1,246.3,89.2z"/>
					<path class="st1" d="M290.9,75.5c-0.2-0.1-0.3-0.2-0.5-0.2h-7.7c-0.3,0-0.6,0.2-0.7,0.4L271.1,96l-2.6-20
						c0-0.4-0.4-0.7-0.8-0.7h-7.6c-0.1,0-0.2,0-0.3,0.1c-0.4,0.2-0.5,0.5-0.5,0.9l5.3,30c0,0.2,0,0.4-0.1,0.5l-1.2,1.9
						c-1.3,2.3-3,3.4-5,3.5c-0.7,0-1.4-0.1-1.9-0.4c-0.4-0.2-0.8,0-1,0.3l-3.6,5.8c-0.1,0.2-0.2,0.3-0.1,0.5c0,0.2,0.2,0.4,0.4,0.5
						c1,0.5,3.1,1.2,5.5,1.2c5.6,0,10.9-3.4,14.5-9.3l19.1-34.3C291.3,76.2,291.3,75.8,290.9,75.5z"/>
					<path class="st1" d="M78.1,89.7c0,5.1-2.9,10.5-8.3,10.5c-3.8,0-6.3-2.8-6.3-7.1c0-6,3.6-10.5,8.3-10.5c0.5,0,0.9,0,1.4,0.1
						c0.4,0.1,0.8-0.2,0.9-0.6c0.4-1.6,1.1-5.1,1.4-6.7c0.1-0.4-0.2-0.9-0.6-0.9c-0.8-0.1-1.6-0.2-2.4-0.2c-10.3,0-18,8.2-18,19.1
						c0,8.7,6.2,15,14.7,15c10.1,0,17.9-8.4,17.9-19.1c0-1.2-0.1-2.3-0.3-3.4c-0.1-0.5-0.5-0.7-1-0.6l-7.2,2.3
						c-0.4,0.1-0.6,0.5-0.5,0.8C78.1,88.9,78.1,89.3,78.1,89.7z"/>
				</g>
				<path class="st2" d="M83.9,77c-1.4-1.4-3.2-2.3-5.4-2.7c-0.5-0.1-0.9,0.2-1,0.7c-0.5,2.3-1.9,9-2.4,11.3
					c-0.1,0.3,0.2,0.6,0.6,0.5l10.6-3.5c0.4-0.2,0.7-0.6,0.6-1C86.4,80.2,85.3,78.4,83.9,77z"/>
			</g>
		</g>
	</g>
</g>
</svg>
